<svg width="154" height="21" viewBox="0 0 154 21" fill="none" xmlns="http://www.w3.org/2000/svg">
<path d="M11.2148 12.3242C10.9883 12.3164 10.75 12.3047 10.5 12.2891C10.2578 12.2656 9.96875 12.25 9.63281 12.2422C8.89844 12.2266 8.10156 12.2578 7.24219 12.3359C7.04688 13.0078 6.72266 13.8359 6.26953 14.8203C5.82422 15.7969 5.38281 16.625 4.94531 17.3047C4.00781 18.7578 3.05469 19.6562 2.08594 20C1.94531 20.0547 1.80078 20.082 1.65234 20.082C1.51172 20.082 1.38281 20.0547 1.26562 20C1.14844 19.9531 1.05078 19.8906 0.972656 19.8125C0.808594 19.6641 0.726562 19.5 0.726562 19.3203C0.726562 19.1406 0.785156 19.0078 0.902344 18.9219C2.01172 18.1172 3.15234 16.0898 4.32422 12.8398C4.23828 12.8633 4.15234 12.8867 4.06641 12.9102C3.98047 12.9336 3.90625 12.957 3.84375 12.9805C3.78125 13.0039 3.70703 13.0156 3.62109 13.0156C3.54297 13.0156 3.45312 12.9922 3.35156 12.9453C3.25781 12.8906 3.17188 12.8281 3.09375 12.7578C2.92188 12.6016 2.83594 12.4492 2.83594 12.3008C2.83594 12.1523 2.90234 12.0156 3.03516 11.8906C3.17578 11.7578 3.34766 11.6328 3.55078 11.5156C3.92578 11.2969 4.39844 11.0938 4.96875 10.9062L5.60156 8.9375C6.34375 6.63281 7.05469 5.03516 7.73438 4.14453C7.09375 4.08984 6.62109 4.0625 6.31641 4.0625C5.39453 4.0625 4.73047 4.19141 4.32422 4.44922C3.92578 4.70703 3.64453 4.98828 3.48047 5.29297C3.32422 5.58984 3.24219 5.79688 3.23438 5.91406C3.21094 6.13281 3.14062 6.27344 3.02344 6.33594C2.90625 6.39062 2.76172 6.41797 2.58984 6.41797C2.42578 6.41797 2.25391 6.35938 2.07422 6.24219C1.89453 6.11719 1.74609 5.96094 1.62891 5.77344C1.37891 5.39062 1.28125 4.96094 1.33594 4.48438C1.39062 4 1.54688 3.58594 1.80469 3.24219C2.07031 2.89062 2.38281 2.60547 2.74219 2.38672C3.40625 1.98047 4.10547 1.77734 4.83984 1.77734C5.58203 1.77734 6.28125 1.81641 6.9375 1.89453C7.60156 1.96484 8.26172 2.04688 8.91797 2.14062C10.6602 2.375 11.7695 2.49219 12.2461 2.49219C12.7227 2.49219 13.0742 2.46484 13.3008 2.41016C13.5352 2.35547 13.7344 2.27344 13.8984 2.16406C14.0625 2.05469 14.1758 1.98438 14.2383 1.95312C14.3086 1.91406 14.418 1.89453 14.5664 1.89453C14.8008 1.89453 14.9023 2.07422 14.8711 2.43359C14.8398 2.78516 14.7539 3.08984 14.6133 3.34766C14.4727 3.59766 14.2891 3.80469 14.0625 3.96875C13.6016 4.30469 13.0156 4.47266 12.3047 4.47266C11.5938 4.47266 10.7305 4.42578 9.71484 4.33203C9.45703 4.85547 9.21094 5.54297 8.97656 6.39453L7.89844 10.2617C8.63281 10.1445 9.19141 10.0859 9.57422 10.0859C9.96484 10.0859 10.2852 10.125 10.5352 10.2031C10.7852 10.2812 11.0078 10.3906 11.2031 10.5312C11.6562 10.8359 11.8789 11.2109 11.8711 11.6562C11.8633 12.1016 11.6445 12.3242 11.2148 12.3242ZM19.8989 19.2031C19.5708 18.8906 19.313 18.4961 19.1255 18.0195C18.938 17.5352 18.8403 16.9648 18.8325 16.3086C18.8247 15.6523 18.9028 14.9883 19.0669 14.3164C19.2388 13.6445 19.477 12.9961 19.7817 12.3711C20.0942 11.7461 20.4653 11.1602 20.895 10.6133C21.3325 10.0664 21.813 9.58984 22.3364 9.18359C23.477 8.30859 24.6606 7.87109 25.8872 7.87109C27.4966 7.87109 28.5864 8.57812 29.1567 9.99219C29.563 11.0156 29.5864 12.2539 29.227 13.707C28.8989 15.043 28.2973 16.2695 27.4223 17.3867C26.5552 18.5039 25.5317 19.2969 24.352 19.7656C23.7583 20 23.1723 20.1172 22.5942 20.1172C22.0239 20.1172 21.5122 20.043 21.0591 19.8945C20.6138 19.7461 20.227 19.5156 19.8989 19.2031ZM22.1372 13.5195C21.9028 14.0977 21.7153 14.6914 21.5747 15.3008C21.4419 15.9102 21.3794 16.4883 21.3872 17.0352C21.395 17.5742 21.477 18 21.6333 18.3125C21.7973 18.6172 22.0591 18.7695 22.4184 18.7695C22.7778 18.7695 23.1294 18.6484 23.4731 18.4062C23.8247 18.1562 24.1645 17.8281 24.4927 17.4219C24.8208 17.0156 25.1294 16.5469 25.4184 16.0156C25.7075 15.4844 25.9614 14.9297 26.1802 14.3516C26.6567 13.0938 26.8872 11.9766 26.8716 11C26.8716 10.1406 26.6958 9.59375 26.3442 9.35938C26.2036 9.26562 26.0044 9.21875 25.7466 9.21875C25.4966 9.21875 25.2075 9.33594 24.8794 9.57031C24.5513 9.79688 24.2231 10.1055 23.895 10.4961C23.5669 10.8867 23.2505 11.3438 22.9458 11.8672C22.6411 12.3906 22.3716 12.9414 22.1372 13.5195ZM37.7705 19.2031C37.4423 18.8906 37.1845 18.4961 36.997 18.0195C36.8095 17.5352 36.7119 16.9648 36.7041 16.3086C36.6963 15.6523 36.7744 14.9883 36.9384 14.3164C37.1103 13.6445 37.3486 12.9961 37.6533 12.3711C37.9658 11.7461 38.3369 11.1602 38.7666 10.6133C39.2041 10.0664 39.6845 9.58984 40.208 9.18359C41.3486 8.30859 42.5322 7.87109 43.7588 7.87109C45.3681 7.87109 46.458 8.57812 47.0283 9.99219C47.4345 11.0156 47.458 12.2539 47.0986 13.707C46.7705 15.043 46.1689 16.2695 45.2939 17.3867C44.4267 18.5039 43.4033 19.2969 42.2236 19.7656C41.6298 20 41.0439 20.1172 40.4658 20.1172C39.8955 20.1172 39.3838 20.043 38.9306 19.8945C38.4853 19.7461 38.0986 19.5156 37.7705 19.2031ZM40.0088 13.5195C39.7744 14.0977 39.5869 14.6914 39.4463 15.3008C39.3134 15.9102 39.2509 16.4883 39.2588 17.0352C39.2666 17.5742 39.3486 18 39.5048 18.3125C39.6689 18.6172 39.9306 18.7695 40.29 18.7695C40.6494 18.7695 41.0009 18.6484 41.3447 18.4062C41.6963 18.1562 42.0361 17.8281 42.3642 17.4219C42.6923 17.0156 43.0009 16.5469 43.29 16.0156C43.5791 15.4844 43.833 14.9297 44.0517 14.3516C44.5283 13.0938 44.7588 11.9766 44.7431 11C44.7431 10.1406 44.5673 9.59375 44.2158 9.35938C44.0752 9.26562 43.8759 9.21875 43.6181 9.21875C43.3681 9.21875 43.0791 9.33594 42.7509 9.57031C42.4228 9.79688 42.0947 10.1055 41.7666 10.4961C41.4384 10.8867 41.122 11.3438 40.8173 11.8672C40.5127 12.3906 40.2431 12.9414 40.0088 13.5195ZM66.2592 17.6328C66.4233 17.6328 66.5053 17.7188 66.5053 17.8906C66.5053 18.5625 66.1577 19.1406 65.4623 19.625C65.0014 19.9531 64.5639 20.1172 64.1498 20.1172C63.7436 20.1172 63.4194 20.0703 63.1772 19.9766C62.935 19.8828 62.7163 19.7344 62.5209 19.5312C62.0834 19.0625 61.8647 18.418 61.8647 17.5977C61.8647 17.4336 61.8959 17.1719 61.9584 16.8125C61.3256 17.7891 60.7827 18.4766 60.3295 18.875C59.4155 19.7031 58.5209 20.1172 57.6459 20.1172C56.2631 20.1172 55.3569 19.4922 54.9272 18.2422C54.7709 17.7812 54.6928 17.2031 54.6928 16.5078C54.6928 15.8125 54.7983 15.1094 55.0092 14.3984C55.2202 13.6875 55.5053 13.0117 55.8647 12.3711C56.2319 11.7305 56.6538 11.1367 57.1303 10.5898C57.6147 10.0352 58.1225 9.55469 58.6538 9.14844C59.7944 8.29688 60.8256 7.87109 61.7475 7.87109C62.6694 7.87109 63.4077 8.24609 63.9623 8.99609C65.3217 4.33984 66.3452 1.59375 67.0327 0.757812C67.3217 0.414063 67.6264 0.242188 67.9467 0.242188C68.478 0.242188 68.8803 0.394531 69.1538 0.699219C69.2397 0.800781 69.2827 0.902344 69.2827 1.00391C69.2827 1.10547 69.2202 1.29297 69.0952 1.56641C68.9702 1.83984 68.7866 2.28125 68.5444 2.89062C67.8491 4.72656 67.3608 6.07031 67.0795 6.92188C66.3608 9.10156 65.8764 10.6016 65.6264 11.4219L64.9819 13.5898C64.4272 15.5195 64.1498 16.7461 64.1498 17.2695C64.1498 17.793 64.3413 18.0547 64.7241 18.0547C65.0756 18.0547 65.3569 18.0078 65.5678 17.9141L66.0131 17.7031C66.0991 17.6562 66.1811 17.6328 66.2592 17.6328ZM58.2084 18.3594C59.0131 18.3594 59.935 17.5742 60.9741 16.0039C62.06 14.3789 62.8178 12.6094 63.2475 10.6953C63.2163 10.1641 62.9936 9.77344 62.5795 9.52344C62.4389 9.4375 62.2241 9.39453 61.935 9.39453C61.6538 9.39453 61.3217 9.5 60.9389 9.71094C60.5639 9.91406 60.1967 10.1914 59.8373 10.543C59.4858 10.8945 59.1538 11.3086 58.8413 11.7852C58.5366 12.2539 58.2709 12.7539 58.0444 13.2852C57.5522 14.4414 57.3061 15.5781 57.3061 16.6953C57.3061 17.8047 57.6069 18.3594 58.2084 18.3594Z" fill="#222222"/>
<path d="M82.9823 17.0469C83.2167 17.0469 83.3339 17.2695 83.3339 17.7148C83.3339 18.1602 83.2675 18.5234 83.1347 18.8047C83.0019 19.0859 82.8183 19.3242 82.5839 19.5195C82.1073 19.918 81.4745 20.1172 80.6855 20.1172C80.1386 20.1172 79.5175 20.0078 78.8222 19.7891C78.1269 19.5625 77.5917 19.3984 77.2167 19.2969C76.8495 19.1953 76.5097 19.1445 76.1972 19.1445C75.8925 19.1445 75.6425 19.1758 75.4472 19.2383C75.2597 19.3008 75.0839 19.3789 74.9198 19.4727C74.7636 19.5664 74.6113 19.6641 74.4628 19.7656C74.1503 19.9844 73.9355 20.0938 73.8183 20.0938C73.7089 20.0938 73.5995 20.0625 73.4902 20C73.3808 19.9375 73.2792 19.8555 73.1855 19.7539C72.9667 19.5195 72.8573 19.3359 72.8573 19.2031C72.8573 19.0703 72.9277 18.832 73.0683 18.4883C73.2167 18.1445 73.5097 17.6719 73.9472 17.0703C74.3847 16.4609 74.8691 15.8633 75.4003 15.2773C75.9316 14.6836 76.4941 14.0977 77.0878 13.5195C78.8222 11.8164 79.9472 10.6914 80.4628 10.1445C80.9863 9.59766 81.4472 9.05469 81.8456 8.51562C82.7128 7.35156 83.1464 6.30078 83.1464 5.36328C83.1464 4.37109 82.7909 3.73047 82.08 3.44141C81.8613 3.35547 81.5761 3.3125 81.2245 3.3125C80.8808 3.3125 80.5331 3.41406 80.1816 3.61719C79.83 3.8125 79.5331 4.0625 79.2909 4.36719C78.7909 4.98438 78.5409 5.65234 78.5409 6.37109C78.5409 7.02734 78.7284 7.43359 79.1034 7.58984C79.2597 7.66016 79.3378 7.76172 79.3378 7.89453C79.3378 8.17578 79.2011 8.43359 78.9277 8.66797C78.4198 9.10547 77.9863 9.32422 77.6269 9.32422C77.2675 9.32422 76.9784 9.25781 76.7597 9.125C76.5409 8.99219 76.3573 8.81641 76.2089 8.59766C75.912 8.16016 75.7636 7.6875 75.7636 7.17969C75.7636 6.66406 75.8261 6.20312 75.9511 5.79688C76.0761 5.39062 76.2558 4.99609 76.4902 4.61328C76.7323 4.22266 77.0175 3.85547 77.3456 3.51172C77.6816 3.16797 78.0566 2.86719 78.4706 2.60938C79.3847 2.04688 80.2792 1.76562 81.1542 1.76562C82.037 1.76562 82.7323 1.88281 83.2402 2.11719C83.7558 2.35156 84.1738 2.65625 84.4941 3.03125C85.0878 3.75 85.3847 4.66406 85.3847 5.77344C85.3847 7.59375 84.5019 9.43359 82.7363 11.293C81.8066 12.2695 80.8652 13.1406 79.912 13.9062L77.6855 15.6992C76.4745 16.6992 75.6386 17.5195 75.1777 18.1602C75.7792 17.8945 76.2753 17.75 76.6659 17.7266C77.0566 17.6953 77.373 17.6875 77.6152 17.7031C77.8652 17.7109 78.1269 17.7266 78.4003 17.75C79.1191 17.8125 79.6933 17.8438 80.123 17.8438C80.5527 17.8438 80.9238 17.8047 81.2363 17.7266C81.5566 17.6406 81.8144 17.5469 82.0097 17.4453C82.2128 17.3438 82.3808 17.2539 82.5136 17.1758C82.6464 17.0898 82.8027 17.0469 82.9823 17.0469ZM101.932 12.3242C101.705 12.3164 101.467 12.3047 101.217 12.2891C100.975 12.2656 100.686 12.25 100.35 12.2422C99.6156 12.2266 98.8187 12.2578 97.9594 12.3359C97.7641 13.0078 97.4398 13.8359 96.9867 14.8203C96.5414 15.7969 96.1 16.625 95.6625 17.3047C94.725 18.7578 93.7719 19.6562 92.8031 20C92.6625 20.0547 92.518 20.082 92.3695 20.082C92.2289 20.082 92.1 20.0547 91.9828 20C91.8656 19.9531 91.768 19.8906 91.6898 19.8125C91.5258 19.6641 91.4437 19.5 91.4437 19.3203C91.4437 19.1406 91.5023 19.0078 91.6195 18.9219C92.7289 18.1172 93.8695 16.0898 95.0414 12.8398C94.9555 12.8633 94.8695 12.8867 94.7836 12.9102C94.6977 12.9336 94.6234 12.957 94.5609 12.9805C94.4984 13.0039 94.4242 13.0156 94.3383 13.0156C94.2602 13.0156 94.1703 12.9922 94.0687 12.9453C93.975 12.8906 93.8891 12.8281 93.8109 12.7578C93.6391 12.6016 93.5531 12.4492 93.5531 12.3008C93.5531 12.1523 93.6195 12.0156 93.7523 11.8906C93.893 11.7578 94.0648 11.6328 94.268 11.5156C94.643 11.2969 95.1156 11.0938 95.6859 10.9062L96.3187 8.9375C97.0609 6.63281 97.7719 5.03516 98.4516 4.14453C97.8109 4.08984 97.3383 4.0625 97.0336 4.0625C96.1117 4.0625 95.4477 4.19141 95.0414 4.44922C94.643 4.70703 94.3617 4.98828 94.1977 5.29297C94.0414 5.58984 93.9594 5.79688 93.9516 5.91406C93.9281 6.13281 93.8578 6.27344 93.7406 6.33594C93.6234 6.39062 93.4789 6.41797 93.307 6.41797C93.143 6.41797 92.9711 6.35938 92.7914 6.24219C92.6117 6.11719 92.4633 5.96094 92.3461 5.77344C92.0961 5.39062 91.9984 4.96094 92.0531 4.48438C92.1078 4 92.2641 3.58594 92.5219 3.24219C92.7875 2.89062 93.1 2.60547 93.4594 2.38672C94.1234 1.98047 94.8227 1.77734 95.557 1.77734C96.2992 1.77734 96.9984 1.81641 97.6547 1.89453C98.3187 1.96484 98.9789 2.04688 99.6352 2.14062C101.377 2.375 102.487 2.49219 102.963 2.49219C103.44 2.49219 103.791 2.46484 104.018 2.41016C104.252 2.35547 104.452 2.27344 104.616 2.16406C104.78 2.05469 104.893 1.98438 104.955 1.95312C105.026 1.91406 105.135 1.89453 105.284 1.89453C105.518 1.89453 105.62 2.07422 105.588 2.43359C105.557 2.78516 105.471 3.08984 105.33 3.34766C105.19 3.59766 105.006 3.80469 104.78 3.96875C104.319 4.30469 103.733 4.47266 103.022 4.47266C102.311 4.47266 101.448 4.42578 100.432 4.33203C100.174 4.85547 99.9281 5.54297 99.6937 6.39453L98.6156 10.2617C99.35 10.1445 99.9086 10.0859 100.291 10.0859C100.682 10.0859 101.002 10.125 101.252 10.2031C101.502 10.2812 101.725 10.3906 101.92 10.5312C102.373 10.8359 102.596 11.2109 102.588 11.6562C102.58 12.1016 102.362 12.3242 101.932 12.3242ZM110.616 19.2031C110.288 18.8906 110.03 18.4961 109.843 18.0195C109.655 17.5352 109.558 16.9648 109.55 16.3086C109.542 15.6523 109.62 14.9883 109.784 14.3164C109.956 13.6445 110.194 12.9961 110.499 12.3711C110.811 11.7461 111.183 11.1602 111.612 10.6133C112.05 10.0664 112.53 9.58984 113.054 9.18359C114.194 8.30859 115.378 7.87109 116.604 7.87109C118.214 7.87109 119.304 8.57812 119.874 9.99219C120.28 11.0156 120.304 12.2539 119.944 13.707C119.616 15.043 119.015 16.2695 118.14 17.3867C117.272 18.5039 116.249 19.2969 115.069 19.7656C114.475 20 113.89 20.1172 113.311 20.1172C112.741 20.1172 112.229 20.043 111.776 19.8945C111.331 19.7461 110.944 19.5156 110.616 19.2031ZM112.854 13.5195C112.62 14.0977 112.433 14.6914 112.292 15.3008C112.159 15.9102 112.097 16.4883 112.104 17.0352C112.112 17.5742 112.194 18 112.35 18.3125C112.515 18.6172 112.776 18.7695 113.136 18.7695C113.495 18.7695 113.847 18.6484 114.19 18.4062C114.542 18.1562 114.882 17.8281 115.21 17.4219C115.538 17.0156 115.847 16.5469 116.136 16.0156C116.425 15.4844 116.679 14.9297 116.897 14.3516C117.374 13.0938 117.604 11.9766 117.589 11C117.589 10.1406 117.413 9.59375 117.061 9.35938C116.921 9.26562 116.722 9.21875 116.464 9.21875C116.214 9.21875 115.925 9.33594 115.597 9.57031C115.268 9.79688 114.94 10.1055 114.612 10.4961C114.284 10.8867 113.968 11.3438 113.663 11.8672C113.358 12.3906 113.089 12.9414 112.854 13.5195ZM127.445 19.7188C127.288 19.6016 127.163 19.4727 127.07 19.332C126.976 19.1836 126.925 19.0586 126.917 18.957C126.91 18.8477 126.929 18.7188 126.976 18.5703C127.031 18.4141 127.101 18.2266 127.187 18.0078C128.781 14.0859 129.577 11.4531 129.577 10.1094C129.554 9.73438 129.425 9.46875 129.191 9.3125L128.956 9.14844C128.886 9.09375 128.847 9 128.839 8.86719C128.839 8.72656 128.89 8.59375 128.992 8.46875C129.093 8.34375 129.226 8.23438 129.39 8.14062C129.726 7.96094 130.07 7.87109 130.421 7.87109C130.781 7.87109 131.058 7.91016 131.253 7.98828C131.456 8.06641 131.628 8.17188 131.769 8.30469C132.066 8.58594 132.214 8.88281 132.214 9.19531C132.222 9.50781 132.187 9.82422 132.109 10.1445C132.038 10.4648 131.952 10.7812 131.851 11.0938C131.749 11.3984 131.648 11.6914 131.546 11.9727C131.445 12.2461 131.378 12.4492 131.347 12.582C131.285 12.8555 131.261 13.0273 131.277 13.0977C131.464 12.9336 131.577 12.7734 131.617 12.6172L132.074 11.75C133.089 9.92188 134.081 8.71094 135.05 8.11719C135.331 7.95312 135.667 7.87109 136.058 7.87109C136.456 7.87109 136.777 8.01172 137.019 8.29297C137.261 8.56641 137.386 8.87109 137.394 9.20703C137.41 9.54297 137.386 9.82422 137.324 10.0508C137.269 10.2695 137.183 10.4766 137.066 10.6719C136.808 11.1094 136.495 11.3281 136.128 11.3281C136.027 11.3281 135.933 11.293 135.847 11.2227L135.589 11C135.331 10.7734 135.081 10.6602 134.839 10.6602C134.605 10.6602 134.316 10.8164 133.972 11.1289C133.636 11.4414 133.285 11.8438 132.917 12.3359C131.683 13.9688 130.675 15.7969 129.894 17.8203L129.378 19.1797C129.245 19.5156 129.128 19.7578 129.027 19.9062C128.925 20.0469 128.773 20.1172 128.57 20.1172C128.374 20.1172 128.175 20.0781 127.972 20C127.777 19.9297 127.601 19.8359 127.445 19.7188ZM150.473 20.1055C148.699 20.1055 147.285 18.4219 146.23 15.0547C145.816 15.8203 145.473 16.5156 145.199 17.1406L144.496 18.7344C144.293 19.1719 144.101 19.5117 143.922 19.7539C143.75 19.9961 143.555 20.1172 143.336 20.1172C143.117 20.1172 142.918 20.0781 142.738 20C142.558 19.9297 142.402 19.8359 142.269 19.7188C141.996 19.4688 141.859 19.1953 141.859 18.8984C141.859 18.7812 141.941 18.5508 142.105 18.207L142.574 17.2578C144.035 14.25 145.359 10.4375 146.547 5.82031C146.984 4.11719 147.301 2.58594 147.496 1.22656C147.582 0.570312 147.902 0.242188 148.457 0.242188C148.785 0.242188 149.058 0.328125 149.277 0.5C149.699 0.835938 149.902 1.19922 149.887 1.58984C149.871 1.97266 149.816 2.40625 149.723 2.89062C149.637 3.375 149.519 3.90625 149.371 4.48438C149.223 5.05469 149.055 5.65234 148.867 6.27734C148.359 7.91016 147.98 9.07422 147.73 9.76953L146.629 12.8047C146.488 13.1641 146.379 13.4258 146.301 13.5898C148.113 12.8711 149.473 12.0586 150.379 11.1523C150.926 10.6055 151.199 10.0938 151.199 9.61719C151.199 9.375 151.117 9.19922 150.953 9.08984C150.797 8.98047 150.687 8.89844 150.625 8.84375C150.57 8.78125 150.566 8.67578 150.613 8.52734C150.668 8.37109 150.816 8.22266 151.058 8.08203C151.301 7.94141 151.594 7.87109 151.937 7.87109C152.281 7.87109 152.566 7.90234 152.793 7.96484C153.027 8.02734 153.23 8.125 153.402 8.25781C153.785 8.53125 153.976 8.91797 153.976 9.41797C153.976 9.91797 153.871 10.3789 153.66 10.8008C153.449 11.2148 153.121 11.6172 152.676 12.0078C151.793 12.7578 150.379 13.4844 148.433 14.1875C148.676 15.2266 149.121 16.1406 149.769 16.9297C150.387 17.6797 150.953 18.0547 151.469 18.0547C151.742 18.0547 151.976 18.0078 152.172 17.9141L152.594 17.7031C152.68 17.6562 152.762 17.6328 152.84 17.6328C153.035 17.6328 153.133 17.75 153.133 17.9844C153.133 18.1875 153.098 18.3672 153.027 18.5234C152.957 18.6719 152.855 18.832 152.723 19.0039C152.598 19.1758 152.433 19.3438 152.23 19.5078C151.723 19.9062 151.137 20.1055 150.473 20.1055Z" fill="#F15025"/>
</svg>
